<?xml version="1.0" encoding="utf-8"?>
<!-- Generator: Adobe Illustrator 19.2.0, SVG Export Plug-In . SVG Version: 6.00 Build 0)  -->
<svg version="1.1" id="Layer_1" xmlns="http://www.w3.org/2000/svg" xmlns:xlink="http://www.w3.org/1999/xlink" x="0px" y="0px"
	 viewBox="0 0 50.8 46.9" style="enable-background:new 0 0 50.8 46.9;" xml:space="preserve">
<style type="text/css">
	.st0{fill:none;stroke:#3BC2D7;stroke-width:1.5017;stroke-miterlimit:10;}
	.st1{fill:#3BC2D7;}
	.st2{fill:none;stroke:#231F20;stroke-width:1.5017;stroke-miterlimit:10;}
</style>
<g id="Layer_1_1_">
	<g id="Plug">
	</g>
	<g>
		<polyline class="st0" points="41.3,27.5 41.3,39.6 8.5,39.6 8.5,30.7 		"/>
		<polyline class="st0" points="17.1,25.4 8.5,25.4 8.5,6.9 41.3,6.9 41.3,23.4 		"/>
		<line class="st0" x1="18.4" y1="6.9" x2="18.4" y2="15.4"/>
		<polyline class="st0" points="13.2,11.1 13.2,20 23,20 23,30.9 13.2,30.9 13.2,39.6 		"/>
		<polyline class="st0" points="24.3,6.9 24.3,15.4 30.1,15.4 30.1,26.6 		"/>
		<polyline class="st0" points="19.1,39.6 19.1,34.6 27.2,34.6 27.2,30.1 35.7,30.1 		"/>
		<line class="st0" x1="33.7" y1="34.9" x2="41.4" y2="34.9"/>
		<polyline class="st0" points="35.1,19 37.7,19 37.7,12.9 42,12.9 		"/>
		<g>
			<line class="st0" x1="0.8" y1="28.2" x2="3.8" y2="28.2"/>
			<g>
				<polygon class="st1" points="2.2,30.2 3.1,28.2 2.2,26.1 7,28.2 				"/>
			</g>
		</g>
		<g>
			<line class="st0" x1="42.6" y1="25.4" x2="45.5" y2="25.4"/>
			<g>
				<polygon class="st1" points="44,27.4 44.9,25.4 44,23.4 48.8,25.4 				"/>
			</g>
		</g>
		<path class="st2" d="M3.2,28.2"/>
		<circle class="st1" cx="12.9" cy="12.1" r="2"/>
		<circle class="st1" cx="30.1" cy="25.4" r="2.1"/>
		<circle class="st0" cx="33.6" cy="19" r="1.4"/>
		<circle class="st0" cx="18.1" cy="25.4" r="1.4"/>
		<circle class="st0" cx="32.6" cy="34.9" r="1.4"/>
		<circle class="st1" cx="36.9" cy="30.2" r="2.1"/>
	</g>
</g>
<g id="Grid_Artboards">
</g>
</svg>
