<?xml version="1.0" encoding="utf-8"?>
<!-- Generator: Adobe Illustrator 19.2.0, SVG Export Plug-In . SVG Version: 6.00 Build 0)  -->
<svg version="1.1" id="Layer_1" xmlns="http://www.w3.org/2000/svg" xmlns:xlink="http://www.w3.org/1999/xlink" x="0px" y="0px"
	 viewBox="0 0 46.9 46.9" style="enable-background:new 0 0 46.9 46.9;" xml:space="preserve">
<style type="text/css">
	.st0{fill:#00B4D0;}
</style>
<g id="Layer_1_1_">
	<g>
		<g>
			<path class="st0" d="M45.4,21.1c-0.8-0.8-1.9-1.3-3-1.3s-2.1,0.5-2.9,1.2c-0.7,0.6-2.7,2-5,2h-2.9c-2.4,0-4.3-1.4-5-2
				c-0.7-0.8-1.8-1.2-2.9-1.2c-1.2,0-2.3,0.5-3,1.3C19.9,21.7,18,23,15.8,23h-2.9c-2.5,0-4.5-1.5-5.1-2.1c-0.1-0.1-0.2-0.1-0.2-0.2
				l0,0l0,0c-1-0.8-2.4-1.1-3.7-0.8c-1.1,0.3-2,1.1-2.5,2c-0.5,1.1-0.5,2.3-0.1,3.3s1.2,1.9,2.3,2.3c1.3,0.5,2.9,0.3,4-0.6l0,0l0,0
				c0.1-0.1,0.2-0.1,0.2-0.2c0.7-0.6,2.6-2.1,5.1-2.1h2.9c2.3,0,4.2,1.3,5,2c0.6,0.7,1.5,1.1,2.5,1.2c0.1,0,0.3,0,0.4,0l0,0
				c0.3,0,0.5,0,0.8-0.1l0,0c0.3-0.1,0.5-0.1,0.8-0.2l0,0c0.4-0.2,0.7-0.4,1-0.6l0,0l0,0l0.1-0.1c0,0,0,0,0.1,0c0,0,0,0,0.1-0.1
				c0.7-0.6,2.6-2.1,5.1-2.1h2.9c2.4,0,4.3,1.4,5,2c0.8,0.8,2,1.3,3.1,1.2c1-0.1,2-0.5,2.6-1.2C46.7,25,46.7,22.6,45.4,21.1z"/>
			<g>
				<path class="st0" d="M33,10.1c-1.1,0-2.1,0.5-2.9,1.2c-0.7,0.6-2.7,2-5,2h-2.9c-2.5,0-4.5-1.5-5.1-2.1c-0.1-0.1-0.2-0.1-0.2-0.2
					l0,0l0,0c-0.7-0.6-1.6-0.9-2.6-0.9c-2.2,0-4,1.8-4,4s1.8,4,4,4c1,0,1.9-0.3,2.6-0.9l0,0l0,0c0.1-0.1,0.2-0.1,0.2-0.2
					c0.7-0.6,2.6-2.1,5.1-2.1h2.9c2.4,0,4.3,1.4,5,2c0.7,0.7,1.7,1.2,2.9,1.2c2.2,0,4-1.8,4-4S35.2,10.1,33,10.1z"/>
				<path class="st0" d="M33,29.4c-1.1,0-2.1,0.5-2.9,1.2c-0.7,0.6-2.7,2-5,2h-2.9c-2.5,0-4.5-1.5-5.1-2.1c-0.1-0.1-0.2-0.1-0.2-0.2
					l0,0l0,0c-0.7-0.6-1.6-0.9-2.6-0.9c-2.2,0-4,1.8-4,4s1.8,4,4,4c1,0,1.9-0.3,2.6-0.9l0,0l0,0c0.1-0.1,0.2-0.1,0.2-0.2
					c0.7-0.6,2.6-2.1,5.1-2.1h2.9c2.4,0,4.3,1.4,5,2c0.7,0.7,1.7,1.2,2.9,1.2c2.2,0,4-1.8,4-4C37,31.2,35.2,29.4,33,29.4z"/>
			</g>
		</g>
	</g>
</g>
<g id="Grid_Artboards">
</g>
</svg>
