<?xml version="1.0" encoding="utf-8"?>
<!-- Generator: Adobe Illustrator 19.2.0, SVG Export Plug-In . SVG Version: 6.00 Build 0)  -->
<svg version="1.1" id="Layer_1" xmlns="http://www.w3.org/2000/svg" xmlns:xlink="http://www.w3.org/1999/xlink" x="0px" y="0px"
	 viewBox="0 0 34.1 46.9" style="enable-background:new 0 0 34.1 46.9;" xml:space="preserve">
<style type="text/css">
	.st0{fill:#38C2D6;}
</style>
<g id="Layer_1_1_">
	<path class="st0" d="M26.5,28.8l-4.1,4.1l-1.2-1.2l2.9-2.9l-2.9-2.9l1.2-1.2L26.5,28.8z M12.1,24.7L8,28.8l4.1,4.1l1.2-1.2
		l-2.9-2.9l2.9-2.9L12.1,24.7z M33.2,12.8v26H1.3v-26C1.3,12.8,33.2,12.8,33.2,12.8z M31.7,37.3V20.4H2.8v16.9H31.7z M25.3,15.6
		h-2.8v2.7h2.7L25.3,15.6L25.3,15.6z M30.3,15.6h-2.8v2.7h2.7L30.3,15.6L30.3,15.6z M15.2,32.6l0.9,0.4l3.1-7.8l-0.9-0.4L15.2,32.6z
		"/>
</g>
<g id="Grid_Artboards">
</g>
</svg>
