<?xml version="1.0" encoding="utf-8"?>
<!-- Generator: Adobe Illustrator 19.2.0, SVG Export Plug-In . SVG Version: 6.00 Build 0)  -->
<svg version="1.1" id="Layer_1" xmlns="http://www.w3.org/2000/svg" xmlns:xlink="http://www.w3.org/1999/xlink" x="0px" y="0px"
	 viewBox="0 0 29.8 46.9" style="enable-background:new 0 0 29.8 46.9;" xml:space="preserve">
<style type="text/css">
	.st0{fill:#00B4D0;}
</style>
<g id="Layer_1_1_">
	<g>
		<path class="st0" d="M17,27.2c4-0.1,7.2-3.4,7.2-7.4c0-4.1-3.3-7.4-7.4-7.4s-7.4,3.3-7.4,7.4c0,1.4,0.4,2.6,1,3.7l0.8-1.2
			c-0.3-0.8-0.5-1.6-0.5-2.5c0-3.4,2.7-6.1,6.1-6.1s6.1,2.7,6.1,6.1c0,3.1-2.3,5.7-5.3,6.1C17.4,26.4,17.2,26.8,17,27.2z"/>
		<path class="st0" d="M26.7,19.8c0-5.5-4.5-9.9-9.9-9.9s-9.9,4.5-9.9,9.9c0,1.6,0.4,3.2,1.1,4.5l1-0.1c-0.8-1.3-1.2-2.8-1.2-4.5
			c0-5,4-9,9-9s9,4,9,9c0,4.3-3,7.9-7,8.8c0.6,0,1.1,0.2,1.6,0.5C24.1,27.7,26.7,24.1,26.7,19.8z"/>
		<path class="st0" d="M16.8,7.8c-6.6,0-12,5.4-12,12c0,1.7,0.3,3.3,1,4.7h0.6c-0.6-1.4-1-3-1-4.7c0-6.4,5.2-11.5,11.5-11.5
			s11.4,5.2,11.4,11.5c0,4.7-2.8,8.7-6.8,10.5c0.1,0.2,0.1,0.3,0.2,0.5c4.2-1.9,7.1-6.1,7.1-11C28.8,13.2,23.4,7.8,16.8,7.8z"/>
		<path class="st0" d="M18.3,24.3c1.9-0.6,3.2-2.4,3.2-4.5c0-2.6-2.1-4.7-4.7-4.7s-4.7,2.1-4.7,4.7c0,0.3,0,0.7,0.1,1l1.2-1.9
			c0.1-0.2,0.3-0.5,0.6-0.8c1-1.2,2-1.4,2.7-1.4c0.4,0,0.8,0.1,1.1,0.2c0,0,0.1,0,0.1,0.1c0.8,0.4,1.4,1,1.7,1.8
			c0.4,1.3-0.1,2.6-0.3,3.2C19,22.8,18.6,23.6,18.3,24.3z"/>
		<path class="st0" d="M18.6,30c-0.9,0-1.6,0.7-2.1,1.1l-0.2,0.2c-0.3,0.3-0.6,0.4-0.9,0.4c-0.3,0-0.5-0.1-0.8-0.3
			c-0.5-0.4-0.2-1.3-0.1-1.6v-0.1c0.1-0.4,1.6-3.7,3.6-8.4c0.2-0.3,0.6-1.3,0.3-2.1c-0.1-0.4-0.5-0.8-0.9-1c0,0,0,0-0.1,0
			c-0.2-0.1-0.4-0.1-0.6-0.1c-1.2,0-1.9,1.2-2.2,1.6l-3.8,5.9L5.5,26c-0.6,0-1.2,0.2-1.7,0.6c-0.8,0.6-1.3,1.6-1.6,2.9
			c0,0,0,0,0,0.1l-0.9,6.1c0,0.1,0,0.2,0,0.2c0,0.3,0.2,1.8,2.2,2.4c5.7,1.8,7.6,1.9,8,1.9l0,0l0,0c0.8,0,1.5-0.5,2.7-1.5l0.3-0.3
			c1.1-0.9,2.5-2.1,3.7-3.2c1.4-1.3,2.3-2.4,2.4-3.4c0-0.4-0.1-0.8-0.5-1.2C19.5,30.1,18.9,30,18.6,30z"/>
	</g>
</g>
<g id="Grid_Artboards">
</g>
</svg>
