<?xml version="1.0" encoding="utf-8"?>
<!-- Generator: Adobe Illustrator 18.1.1, SVG Export Plug-In . SVG Version: 6.00 Build 0)  -->
<svg version="1.1" xmlns="http://www.w3.org/2000/svg" xmlns:xlink="http://www.w3.org/1999/xlink" x="0px" y="0px"
	 viewBox="0 0 39.3 30.2" enable-background="new 0 0 39.3 30.2" xml:space="preserve">
<g id="Layer_1">
	<path fill="#3AC2D7" d="M39.3,1c0,7.7,0,15.4,0,23.1h-1H19.1v-2h18.2V10.4H5.9c0-3.1,0-6.3,0-9.4C17.1,1,28.2,1,39.3,1L39.3,1z
		 M9.9,24.3v1H8.5v-1c-1-0.1-1.7-0.6-2.3-1.6l1.4-0.9c0.3,0.7,0.9,1.1,1.6,1.1c0.4,0,1.1-0.2,1.1-0.9c0-0.6-0.3-0.7-1.6-1.2
		c-1.3-0.5-2.4-1-2.4-2.6c0-1.2,0.8-2,2.1-2.2v-1h1.4v1.1c0.9,0.2,1.5,0.6,2.1,1.4l-1.4,0.9c-0.1-0.2-0.3-0.4-0.5-0.5
		c-0.3-0.2-0.6-0.4-1-0.4c-0.7,0-0.9,0.4-1,0.6c0,0.1,0,0.2,0,0.2c0,0.6,0.6,0.8,1.1,1l1.1,0.4c0.5,0.2,1.1,0.5,1.4,0.9
		c0.1,0.1,0.5,0.7,0.5,1.4c0,0.4,0,1.4-1.2,2.1C10.6,24.1,10.2,24.3,9.9,24.3L9.9,24.3z M26.6,17.5h8.3v2h-8.3V17.5L26.6,17.5z
		 M9.2,11.9c2.3,0,4.3,0.9,5.8,2.4c1.5,1.5,2.4,3.5,2.4,5.8c0,2.3-0.9,4.3-2.4,5.8c-1.5,1.5-3.5,2.4-5.8,2.4c-2.3,0-4.3-0.9-5.8-2.4
		C1.9,24.4,1,22.4,1,20.1c0-2.3,0.9-4.3,2.4-5.8C4.9,12.8,6.9,11.9,9.2,11.9L9.2,11.9z M13.6,15.7c-1.1-1.1-2.7-1.8-4.4-1.8
		c-1.7,0-3.2,0.7-4.4,1.8C3.7,16.8,3,18.4,3,20.1c0,1.7,0.7,3.2,1.8,4.4c1.1,1.1,2.7,1.8,4.4,1.8c1.7,0,3.3-0.7,4.4-1.8
		c1.1-1.1,1.8-2.7,1.8-4.4C15.4,18.4,14.7,16.8,13.6,15.7L13.6,15.7z M37.3,6.2V3H8v3.1H37.3L37.3,6.2z"/>
</g>
<g id="Sun_With_Plug">
</g>
<g id="Sun_Ecological_Power">
</g>
<g id="Plug">
</g>
</svg>
