<?xml version="1.0" encoding="utf-8"?>
<!-- Generator: Adobe Illustrator 18.1.1, SVG Export Plug-In . SVG Version: 6.00 Build 0)  -->
<svg version="1.1" id="Слой_1" xmlns="http://www.w3.org/2000/svg" xmlns:xlink="http://www.w3.org/1999/xlink" x="0px" y="0px"
	 viewBox="113.6 0 141.5 141.7" enable-background="new 113.6 0 141.5 141.7" xml:space="preserve">
<g id="Sun_With_Plug">
</g>
<g id="Sun_Ecological_Power">
</g>
<g id="Plug">
</g>
<g>
	<path fill="#3AC2D7" d="M206.9,70.9c-6.2,0-12.3,0.1-18.4,0c-2.2,0-2.9,0.7-2.9,2.9c0.1,10.2,0,20.3,0.1,30.5
		c0,6.1,4.5,10.8,10.4,11.1c5.6,0.2,10.2-4.2,10.8-10.2c0.2-2.7,2.9-4.1,5.4-2.9c0.8,0.4,0.8,1.1,0.8,1.8
		c0.6,7.5-4.1,14.5-11.3,17.1c-7.1,2.6-15.4-0.2-19.4-6.3c-2-2.9-3-6.2-3-9.8c0.1-10.3,0-20.6,0.1-31c0-2.3-0.7-3.2-3.1-3.1
		c-11.1,0.1-22.2,0.1-33.4,0.1c-3.8,0-3.8,0-3.8-3.9c-0.3-10.4,2.9-19.6,9.7-27.4c7.1-8.1,16.1-12.5,26.9-13.2
		c4.3-0.2,4.1,0.5,4.1-4.4c0-0.5,0-1.1,0-1.7c0-2.9,0.3-3.1,3.1-3c1.7,0,2.3,0.8,2.2,2.3c-0.1,1.4,0.1,2.9,0,4.3
		c-0.2,1.8,0.6,2.6,2.5,2.5c5.1-0.3,10,0.5,14.8,2.3c16.9,6.1,27.1,22.2,25.8,40.4c-0.2,1.7-1.1,1.9-2.4,1.9
		C219.5,70.9,213.2,70.9,206.9,70.9z M183.7,64.2c8.6,0,17.2,0,25.8,0c1.4,0,2.6,0,2.4-2.1c-1.1-10.4-9.3-18.9-19.6-20.6
		c-4.4-0.8-9-0.4-13.5-0.4c-11.7,0-21.4,8.4-23.2,20c-0.5,2.9-0.5,3,2.7,3C166.8,64.2,175.2,64.2,183.7,64.2z"/>
</g>
</svg>
