<?xml version="1.0" encoding="utf-8"?>
<!-- Generator: Adobe Illustrator 19.1.0, SVG Export Plug-In . SVG Version: 6.00 Build 0)  -->
<svg version="1.1" xmlns="http://www.w3.org/2000/svg" xmlns:xlink="http://www.w3.org/1999/xlink" x="0px" y="0px"
	 viewBox="0 0 42.5 46.9" enable-background="new 0 0 42.5 46.9" xml:space="preserve">
<g id="Layer_1">
	<g id="Plug">
	</g>
	<g>
		<g id="Layer_1_6_">
			<g>
				<polygon fill="#3BC2D7" points="38.4,36.7 35.9,36.7 35.9,6.8 9.3,6.8 9.3,4.3 38.4,4.3 				"/>
				<g>
					<path fill="#3BC2D7" d="M32.4,43.4H2.9V9.7h29.3v33.7L32.4,43.4L32.4,43.4z M5.4,40.9h24.3V12.2H5.4V40.9z"/>
				</g>
				<g>
					<line fill="#3BC2D7" x1="3.7" y1="10.6" x2="10.4" y2="5.2"/>
					
						<rect x="5.8" y="3.7" transform="matrix(0.6293 0.7772 -0.7772 0.6293 8.7705 -2.505)" fill="#3BC2D7" width="2.5" height="8.5"/>
				</g>
				<g>
					<line fill="#3BC2D7" x1="31" y1="10.6" x2="37.2" y2="5.2"/>
					
						<rect x="32.9" y="3.8" transform="matrix(0.6605 0.7508 -0.7508 0.6605 17.5078 -22.9846)" fill="#3BC2D7" width="2.5" height="8.2"/>
				</g>
				<g>
					<line fill="#3BC2D7" x1="31.6" y1="42.4" x2="37.6" y2="35.7"/>
					<polygon fill="#3BC2D7" points="36.5,35 38.4,36.6 32.1,43.5 30.5,41.7 					"/>
				</g>
			</g>
		</g>
		<path fill="#3BC2D7" d="M16.1,20.3h3.1l7.8,8.3h-4.3l-5.1-5.5l-5.2,5.5H8.2L16.1,20.3z"/>
	</g>
</g>
<g id="Grid_Artboards">
</g>
</svg>
