<?xml version="1.0" encoding="utf-8"?>
<!-- Generator: Adobe Illustrator 18.1.1, SVG Export Plug-In . SVG Version: 6.00 Build 0)  -->
<svg version="1.1" xmlns="http://www.w3.org/2000/svg" xmlns:xlink="http://www.w3.org/1999/xlink" x="0px" y="0px"
	 viewBox="0 0 36.2 28" enable-background="new 0 0 36.2 28" xml:space="preserve">
<g id="Layer_1">
	<path fill="#3AC2D7" d="M2,1h30.9h1v1v20.3v1h-1H20.7v2.3h4v2H10.2v-2h4v-2.3H2H1v-1V2V1H2L2,1z M20.2,12.1l-2.1-1.6L15.9,9v3.2
		v3.2l2.1-1.6L20.2,12.1L20.2,12.1z M17.5,4.9c2,0,3.8,0.8,5.1,2.1c1.3,1.3,2.1,3.1,2.1,5.1c0,2-0.8,3.8-2.1,5.1
		c-1.3,1.3-3.1,2.1-5.1,2.1s-3.8-0.8-5.1-2.1c-1.3-1.3-2.1-3.1-2.1-5.1c0-2,0.8-3.8,2.1-5.1C13.6,5.7,15.5,4.9,17.5,4.9L17.5,4.9z
		 M21.2,8.4c-0.9-0.9-2.3-1.5-3.7-1.5s-2.8,0.6-3.7,1.5c-0.9,0.9-1.5,2.3-1.5,3.7c0,1.4,0.6,2.8,1.5,3.7c0.9,0.9,2.3,1.5,3.7,1.5
		s2.8-0.6,3.7-1.5c0.9-0.9,1.5-2.3,1.5-3.7C22.7,10.7,22.1,9.4,21.2,8.4L21.2,8.4z M31.9,3H3v18.3h28.9V3L31.9,3z"/>
</g>
<g id="Sun_With_Plug">
</g>
<g id="Sun_Ecological_Power">
</g>
<g id="Plug">
</g>
</svg>
