<?xml version="1.0" encoding="utf-8"?>
<!-- Generator: Adobe Illustrator 18.1.1, SVG Export Plug-In . SVG Version: 6.00 Build 0)  -->
<svg version="1.1" id="Layer_1" xmlns="http://www.w3.org/2000/svg" xmlns:xlink="http://www.w3.org/1999/xlink" x="0px" y="0px"
	 viewBox="268.1 394 59 52.9" enable-background="new 268.1 394 59 52.9" xml:space="preserve">
<g id="Sun_With_Plug">
</g>
<g id="Sun_Ecological_Power">
</g>
<g id="Plug">
</g>
<path id="XMLID_76_" fill="#3DC3D7" d="M325.2,405.2c-0.1,0-0.1,0-0.2,0c-0.1,0-0.1,0-0.2,0h-0.9h-1.7h-1.2v1.1v0.1v0.1v1.1h1.2
	c0,0,0,0,0.1,0h1.7v5.1c0,2.8-2.4,5.1-5.1,5.1H318c-2.8,0-5.1-2.4-5.1-5.1v-5.1h1.7c0,0,0,0,0.1,0h1.2v-2.6h-1.4H313h-0.9
	c-0.1,0-0.1,0-0.2,0c-0.1,0-0.1,0-0.2,0c-0.7,0-1.4,0.6-1.4,1.4v6.4c0,4.1,3.2,7.4,7.3,7.7v7.8c0,2.7-2.4,5.1-5.1,5.1
	s-5.1-1.9-5.1-4.1V429c2.3-0.6,3.8-2.6,3.8-5c0-2.8-2.4-5.1-5.1-5.1c-2.8,0-5.1,2.4-5.1,5.1c0,2.5,1.7,4.4,3.8,5v0.3
	c0,3.6,3.4,6.6,7.7,6.6c4.2,0,7.7-3.4,7.7-7.7v-7.8c3.6-0.7,6.4-3.7,6.4-7.5v-6.6C326.4,405.8,325.9,405.2,325.2,405.2z
	 M306.1,426.4c-1.5,0-2.6-1.1-2.6-2.6c0-1.5,1.1-2.6,2.6-2.6c1.5,0,2.6,1.1,2.6,2.6C308.5,425.3,307.5,426.4,306.1,426.4z"/>
<g id="XMLID_73_">
	<rect id="XMLID_75_" x="302.2" y="407.7" fill="#3DC3D7" width="2.6" height="7.7"/>
	<rect id="XMLID_74_" x="299.6" y="410.3" fill="#3DC3D7" width="7.7" height="2.6"/>
</g>
<line id="XMLID_71_" fill="none" stroke="#3DC3D7" stroke-width="0.5486" stroke-miterlimit="10" x1="294.5" y1="404.4" x2="294.5" y2="436.5"/>
<path fill="#3DC3D7" d="M287.8,420.6c-0.9-1.5-2-2.7-3.4-3.5v-10.2h1.6v-2.3c-4.6,0-9.3,0-14,0v2.3h1.7v10.2
	c-1.6,0.9-2.7,2.1-3.6,3.5c-1,1.7-1.6,3.5-1.6,5.5c0,2.8,1.2,5.5,3,7.4c1.9,1.9,4.5,3,7.4,3c2.8,0,5.5-1.2,7.4-3
	c1.9-1.9,3-4.5,3-7.4C289.2,423.9,288.7,422.1,287.8,420.6z M286.5,429.1h-15.3c-0.5-1-0.7-2.1-0.7-3.3c0-1.7,0.5-3,1.2-4.4
	c0.8-1.4,2-2.5,3.3-3l0.7-0.3v-0.7v-10.9h6.3v10.9v0.7l0.6,0.3c1.4,0.7,2.6,1.8,3.3,3c0.8,1.2,1.2,2.7,1.2,4.3
	C287.2,427.1,286.9,428.2,286.5,429.1z"/>
</svg>
