<?xml version="1.0" encoding="UTF-8" standalone="no"?>
<!-- Generator: Adobe Illustrator 19.0.0, SVG Export Plug-In . SVG Version: 6.00 Build 0)  -->

<svg
   xmlns:dc="http://purl.org/dc/elements/1.1/"
   xmlns:cc="http://creativecommons.org/ns#"
   xmlns:rdf="http://www.w3.org/1999/02/22-rdf-syntax-ns#"
   xmlns:svg="http://www.w3.org/2000/svg"
   xmlns="http://www.w3.org/2000/svg"
   xmlns:sodipodi="http://sodipodi.sourceforge.net/DTD/sodipodi-0.dtd"
   xmlns:inkscape="http://www.inkscape.org/namespaces/inkscape"
   version="1.1"
   x="0px"
   y="0px"
   viewBox="0 0 64.7 46.9"
   enable-background="new 0 0 64.7 46.9"
   xml:space="preserve"
   id="svg2"
   inkscape:version="0.91 r13725"
   sodipodi:docname="Emerging_Verticals.svg"><metadata
     id="metadata24"><rdf:RDF><cc:Work
         rdf:about=""><dc:format>image/svg+xml</dc:format><dc:type
           rdf:resource="http://purl.org/dc/dcmitype/StillImage" /><dc:title></dc:title></cc:Work></rdf:RDF></metadata><defs
     id="defs22" /><sodipodi:namedview
     pagecolor="#ffffff"
     bordercolor="#666666"
     borderopacity="1"
     objecttolerance="10"
     gridtolerance="10"
     guidetolerance="10"
     inkscape:pageopacity="0"
     inkscape:pageshadow="2"
     inkscape:window-width="1102"
     inkscape:window-height="704"
     id="namedview20"
     showgrid="false"
     inkscape:zoom="4.9149925"
     inkscape:cx="32.349998"
     inkscape:cy="23.450001"
     inkscape:window-x="258"
     inkscape:window-y="165"
     inkscape:window-maximized="0"
     inkscape:current-layer="svg2" /><g
     id="Layer_1"
     transform="matrix(1.6365898,0,0,1.5411876,-25.486061,-10.922398)"><g
       id="Plug" /></g><g
     id="Grid_Artboards"
     transform="matrix(1.6365898,0,0,1.5411876,-25.486061,-10.922398)"><g
       id="XMLID_37_"><path
         id="XMLID_9_"
         d="m 23.1,32 c 0.3,0 0.6,0 1,0 l 0,-1.9 c -1.6,0.1 -2.2,1.9 -1,1.9 z"
         inkscape:connector-curvature="0"
         style="fill:#3bc2d7" /><path
         id="XMLID_12_"
         d="m 28.3,20.3 -4.3,0 0,9.9 c 1.3,0 2.8,-0.1 4.3,-0.3 l 0,-9.6 z"
         inkscape:connector-curvature="0"
         style="fill:#3bc2d7" /><path
         id="XMLID_13_"
         d="m 24,32 0,5.1 4.3,0 0,-5.4 c -0.1,0 -0.2,0 -0.4,0 C 26.6,31.9 25.3,32 24,32 Z"
         inkscape:connector-curvature="0"
         style="fill:#3bc2d7" /><path
         id="XMLID_15_"
         d="m 30,37.1 4.3,0 0,-6.3 c -1.4,0.3 -2.8,0.6 -4.3,0.8 l 0,5.5 z"
         inkscape:connector-curvature="0"
         style="fill:#3bc2d7" /><path
         id="XMLID_16_"
         d="m 34.3,16.8 -4.3,0 0,12.9 c 1.4,-0.2 2.8,-0.5 4.3,-0.8 l 0,-12.1 z"
         inkscape:connector-curvature="0"
         style="fill:#3bc2d7" /><path
         id="XMLID_18_"
         d="m 35.9,37.1 4.3,0 0,-8.2 c -1.4,0.6 -2.8,1.1 -4.3,1.5 l 0,6.7 z"
         inkscape:connector-curvature="0"
         style="fill:#3bc2d7" /><path
         id="XMLID_19_"
         d="m 40.2,12.3 -4.3,0 0,16.1 c 1.4,-0.4 2.9,-0.9 4.3,-1.5 l 0,-14.6 z"
         inkscape:connector-curvature="0"
         style="fill:#3bc2d7" /><path
         id="XMLID_21_"
         d="m 46.2,7.4 -4.3,0 0,18.7 c 1.5,-0.8 2.9,-1.7 4.3,-2.8 l 0,-15.9 z"
         inkscape:connector-curvature="0"
         style="fill:#3bc2d7" /><path
         id="XMLID_22_"
         d="m 41.9,37.1 4.3,0 0,-11.5 c -1.3,0.9 -2.8,1.8 -4.3,2.5 l 0,9 z"
         inkscape:connector-curvature="0"
         style="fill:#3bc2d7" /><g
         id="XMLID_2_"><path
           id="XMLID_4_"
           d="m 52,18.4 -4.7,0.6 1.9,1.5 c -1,1.1 -2,2.1 -3.1,2.9 l 0,2.3 c 1.7,-1.2 3.2,-2.6 4.5,-4.1 l 1.9,1.5 -0.5,-4.7 z"
           inkscape:connector-curvature="0"
           style="fill:#3bc2d7" /><rect
           id="XMLID_6_"
           x="19.9"
           y="30.1"
           width="4.0999999"
           height="1.9"
           style="fill:#3bc2d7" /></g></g></g></svg>