<?xml version="1.0" encoding="utf-8"?>
<!-- Generator: Adobe Illustrator 18.1.1, SVG Export Plug-In . SVG Version: 6.00 Build 0)  -->
<svg version="1.1" xmlns="http://www.w3.org/2000/svg" xmlns:xlink="http://www.w3.org/1999/xlink" x="0px" y="0px"
	 viewBox="0 0 36.1 31.4" enable-background="new 0 0 36.1 31.4" xml:space="preserve">
<g id="Layer_1">
	<path fill="#3AC2D7" d="M14.9,27.7L14.9,27.7L14.9,27.7L14.9,27.7z M29.4,27.7L29.4,27.7L29.4,27.7L29.4,27.7z M31.3,28.3
		L31.3,28.3L31.3,28.3L31.3,28.3z M16.8,28.3L16.8,28.3L16.8,28.3L16.8,28.3z M14.4,23.8c1,0.3,1.7,0.9,2.1,1.7v0
		c0.4,0.8,0.5,1.8,0.3,2.7l0,0c-0.3,0.9-0.9,1.7-1.8,2.1c-0.8,0.4-1.8,0.5-2.7,0.3l0,0c-0.9-0.3-1.7-0.9-2.1-1.7l0,0
		c-0.4-0.8-0.6-1.8-0.3-2.7l0,0c0.3-0.9,0.9-1.7,1.8-2.1C12.5,23.6,13.5,23.5,14.4,23.8L14.4,23.8L14.4,23.8z M1,0.5h5.9h0.8
		l0.1,0.8l0.4,2.5h25.1h1.2L34.3,5l-2,12.3l-0.1,0.8h-0.8H10.7l0.4,2.2h20.7l-0.3,2H10.2H9.4l-0.1-0.8l-3.2-19H1.3L1,0.5L1,0.5z
		 M9.3,9.6h5.3l-0.6-3.7H8.6l0.5,2.8L9.3,9.6z M16.6,9.6h7.5l0.6-3.7H16L16.6,9.6z M26.1,9.6h5.4l0.7-3.7h-5.4L26.1,9.6z M31.2,11.7
		l-5.4,0l-0.7,4.5h5.4L31.2,11.7z M23.8,11.6l-6.9,0l0.8,4.6H23L23.8,11.6z M14.9,11.6H9.6l0.8,4.6h5.3L14.9,11.6z M28.9,23.8
		c1,0.3,1.7,0.9,2.1,1.7v0c0.4,0.8,0.5,1.8,0.3,2.7l0,0c-0.3,0.9-0.9,1.7-1.8,2.1c-0.8,0.4-1.8,0.5-2.7,0.3l0,0
		c-0.9-0.3-1.7-0.9-2.1-1.7l0,0c-0.4-0.8-0.6-1.8-0.3-2.7l0,0c0.3-0.9,0.9-1.7,1.8-2.1C27,23.6,27.9,23.5,28.9,23.8L28.9,23.8
		L28.9,23.8z M29.2,26.5L29.2,26.5c-0.2-0.4-0.5-0.7-0.9-0.8l0,0c-0.4-0.1-0.9-0.1-1.2,0.1c-0.4,0.2-0.6,0.5-0.8,0.9l0,0
		c-0.1,0.4-0.1,0.9,0.1,1.2v0c0.2,0.4,0.5,0.6,0.9,0.8l0,0c0.4,0.1,0.9,0.1,1.2-0.1c0.4-0.2,0.6-0.5,0.8-0.9l0,0
		C29.5,27.3,29.4,26.8,29.2,26.5L29.2,26.5z M14.8,26.5L14.8,26.5c-0.2-0.4-0.5-0.7-0.9-0.8l0,0c-0.4-0.1-0.9-0.1-1.2,0.1
		c-0.4,0.2-0.6,0.5-0.8,0.9l0,0c-0.1,0.4-0.1,0.9,0.1,1.2v0c0.2,0.4,0.5,0.6,0.9,0.8l0,0c0.4,0.1,0.9,0.1,1.2-0.1
		c0.4-0.2,0.6-0.5,0.8-0.9l0,0C15,27.3,15,26.8,14.8,26.5L14.8,26.5z"/>
</g>
<g id="Sun_With_Plug">
</g>
<g id="Sun_Ecological_Power">
</g>
<g id="Plug">
</g>
</svg>
