<?xml version="1.0" encoding="utf-8"?>
<!-- Generator: Adobe Illustrator 18.1.1, SVG Export Plug-In . SVG Version: 6.00 Build 0)  -->
<svg version="1.1" xmlns="http://www.w3.org/2000/svg" xmlns:xlink="http://www.w3.org/1999/xlink" x="0px" y="0px"
	 viewBox="0 0 36.2 42.7" enable-background="new 0 0 36.2 42.7" xml:space="preserve">
<g id="Layer_1">
	<path fill-rule="evenodd" clip-rule="evenodd" fill="#3AC2D7" d="M12.8,15.2c2.2-2.2,5.2-3.6,8.6-3.6c3.4,0,6.4,1.4,8.6,3.6
		c2.2,2.2,3.6,5.2,3.6,8.6c0,3.4-1.4,6.4-3.6,8.6c-2.2,2.2-5.2,3.6-8.6,3.6c-3.4,0-6.4-1.4-8.6-3.6c-2.2-2.2-3.6-5.2-3.6-8.6
		C9.2,20.5,10.6,17.4,12.8,15.2L12.8,15.2z M22,1.5l-1.4-0.3l-3.1,2L12,0.7l-0.9,0.9l3.8,3.2l-3.1,2l-1.6-0.6L9.4,6.8l2.5,4l0.9-0.5
		l0.1-1.7l3.1-2l1.2,4.6l1.2-0.3l0.1-5.9l3.1-2L22,1.5L22,1.5z M4.3,13.8C5.5,11.7,7,9.9,8.8,8.5l1.1,1.7C8.4,11.4,7.1,13,6,14.8
		c-2.1,3.7-2.5,7.8-1.5,11.6c1,3.8,3.5,7.2,7.2,9.2c2.8,1.6,5.9,2.2,8.9,1.9v2c-3.3,0.3-6.8-0.4-9.9-2.2c-4.2-2.4-7-6.2-8.1-10.5
		C1.4,22.6,1.9,17.9,4.3,13.8L4.3,13.8z M16.6,15.6c0.3-0.5,0.7-1,1-1.4c-0.9,0.3-1.7,0.8-2.4,1.3c-0.8,0.6-1.5,1.3-2.1,2.1h2.5
		C15.9,16.9,16.3,16.2,16.6,15.6L16.6,15.6z M15,19.5l-3,0c-0.3,0.5-0.5,1.1-0.6,1.7c-0.1,0.6-0.3,1.1-0.3,1.7h3.4
		c0-0.6,0.1-1.2,0.2-1.8C14.8,20.5,14.9,20,15,19.5L15,19.5z M14.5,24.7h-3.4c0.1,0.6,0.2,1.2,0.3,1.7c0.2,0.6,0.4,1.2,0.6,1.7h3
		c-0.1-0.5-0.2-1.1-0.3-1.6C14.6,26,14.6,25.4,14.5,24.7L14.5,24.7z M15.6,30h-2.5c0.6,0.8,1.3,1.5,2.1,2.1c0.7,0.5,1.5,1,2.4,1.3
		c-0.3-0.4-0.7-0.9-1-1.4C16.3,31.4,15.9,30.8,15.6,30L15.6,30z M19.3,32.7c0.5,0.6,0.9,1,1.3,1.2V30l-2.9,0
		C18.1,31.1,18.7,32,19.3,32.7L19.3,32.7z M16.9,28.2h3.6v-3.5h-4.2c0,0.6,0.1,1.2,0.2,1.8C16.6,27.1,16.7,27.7,16.9,28.2L16.9,28.2
		z M16.3,22.9h4.2v-3.5h-3.6c-0.2,0.5-0.3,1.1-0.4,1.7C16.4,21.7,16.4,22.3,16.3,22.9L16.3,22.9z M17.6,17.7h3v-3.9l-0.1,0.1
		c-0.2,0.2-0.5,0.4-0.8,0.7c-0.3,0.3-0.6,0.6-0.9,1.1c-0.2,0.3-0.5,0.7-0.7,1.1C17.9,17,17.7,17.3,17.6,17.7L17.6,17.7z M28.3,22.9
		h3.4c-0.1-0.6-0.2-1.2-0.3-1.7c-0.2-0.6-0.4-1.2-0.6-1.7h-3c0.1,0.5,0.2,1.1,0.3,1.6C28.2,21.7,28.3,22.3,28.3,22.9L28.3,22.9z
		 M27.2,17.7h2.5c-0.6-0.8-1.3-1.5-2.1-2.1c-0.7-0.5-1.5-1-2.4-1.3c0.3,0.4,0.7,0.9,1,1.4C26.6,16.2,26.9,16.9,27.2,17.7L27.2,17.7z
		 M22.3,13.8v3.9l2.9,0c-0.5-1.1-1.1-2-1.7-2.7C23.1,14.5,22.7,14.1,22.3,13.8L22.3,13.8z M25.9,19.5l-3.6,0v3.5h4.2
		c0-0.6-0.1-1.2-0.2-1.8C26.2,20.6,26.1,20,25.9,19.5L25.9,19.5z M26.5,24.7h-4.2v3.5l3.6,0c0.2-0.5,0.3-1.1,0.4-1.7
		C26.4,26,26.5,25.4,26.5,24.7L26.5,24.7z M22.3,33.9C22.4,33.9,22.4,33.9,22.3,33.9L22.3,33.9c0.3-0.3,0.6-0.6,1-0.9
		c0.3-0.3,0.5-0.6,0.8-1c0.2-0.3,0.4-0.6,0.7-1c0.2-0.3,0.4-0.7,0.5-1h-3L22.3,33.9L22.3,33.9z M26.2,32c-0.3,0.5-0.6,1-1,1.4
		c0.9-0.3,1.7-0.8,2.4-1.3c0.8-0.6,1.5-1.3,2.1-2.1l-2.5,0C26.9,30.8,26.6,31.4,26.2,32L26.2,32z M27.8,28.2h3
		c0.3-0.5,0.5-1.1,0.6-1.7c0.1-0.6,0.3-1.1,0.3-1.7l-3.4,0c0,0.6-0.1,1.2-0.2,1.8C28,27.1,27.9,27.7,27.8,28.2L27.8,28.2z"/>
</g>
<g id="Sun_With_Plug">
</g>
<g id="Sun_Ecological_Power">
</g>
<g id="Plug">
</g>
</svg>
