<?xml version="1.0" encoding="utf-8"?>
<!-- Generator: Adobe Illustrator 18.1.1, SVG Export Plug-In . SVG Version: 6.00 Build 0)  -->
<svg version="1.1" xmlns="http://www.w3.org/2000/svg" xmlns:xlink="http://www.w3.org/1999/xlink" x="0px" y="0px"
	 viewBox="0 0 40.8 31" style="enable-background:new 0 0 40.8 31;" xml:space="preserve">
<style type="text/css">
	.st0{fill:#39C2D7;}
	.st1{fill-rule:evenodd;clip-rule:evenodd;fill:#39C2D7;}
	.st2{fill:#6D6E71;}
	.st3{fill:#808285;}
	.st4{fill:#FFFFFF;}
	.st5{fill-rule:evenodd;clip-rule:evenodd;fill:#FFFFFF;}
	.st6{fill:#737476;}
	.st7{fill:#858787;}
</style>
<g id="Layer_1">
</g>
<g id="Sun_With_Plug">
</g>
<g id="Sun_Ecological_Power">
</g>
<g id="Plug">
	<g>
		<g>
			<g>
				<rect x="31.8" y="19.7" class="st0" width="2.9" height="10.3"/>
			</g>
			<g>
				<g>
					<rect x="34.7" y="26.9" class="st0" width="5" height="1"/>
				</g>
				<g>
					<rect x="34.7" y="21.8" class="st0" width="5" height="1"/>
				</g>
			</g>
			<g>
				<path class="st0" d="M31.8,22.5v4.7v1.9h-1.9h-0.3h-2.5c-1,0-1.9-0.8-1.9-1.9v-4.7c0-1,0.8-1.9,1.9-1.9h2.5h0.3h1.9V22.5z"/>
			</g>
		</g>
		<g>
			<polygon class="st0" points="12.1,25.8 12,17 13.8,17 13.9,24 24.1,23.8 24.1,25.6 			"/>
		</g>
		<g>
			<g>
				<path class="st0" d="M13.6,18.4l-0.8-0.2C6.3,16.7,0.3,10.9,1.5,2.7l0.1-0.7l0.7,0C6,1.7,9.7,3.6,12,6.8c2.3,3.1,3,7,1.8,10.8
					L13.6,18.4z M3.2,3.7c-0.4,4.9,2.2,10.6,9.1,12.5c0.7-3,0-5.9-1.8-8.4C8.7,5.4,6,3.9,3.2,3.7z"/>
			</g>
			<g>
				<path class="st0" d="M12.1,17.5c0,0-1.1-4-6.3-9L7,7.2c5.6,5.4,6.8,9.7,6.8,9.9L12.1,17.5l0.9-0.2L12.1,17.5z"/>
			</g>
		</g>
		<g>
			<path class="st0" d="M18.8,8.2"/>
		</g>
		<g>
			<path class="st0" d="M23.1,0.4c-3.1,0.2-6.1,2-8,4.7c-0.5,0.7-1,1.4-1.3,2.2c0.3,0.5,0.5,1,0.8,1.5c0.7-1.5,2.3-3.3,3.2-4.3
				c1.3-1.4,2.6-2,4.3-2.3c0.8,3.9-1.2,8.3-4.5,10.9c-0.5,0.4-1.3,1-2.1,1.5c-0.1,0.7-0.2,1.3-0.3,2c0.9-0.4,1.7-0.9,2.5-1.4
				C22.8,11.7,24.5,5.7,23.1,0.4z"/>
		</g>
	</g>
</g>
</svg>
